<?xml version="1.0" encoding="UTF-8" standalone="no"?>
<!DOCTYPE svg PUBLIC "-//W3C//DTD SVG 1.1//EN" "http://www.w3.org/Graphics/SVG/1.1/DTD/svg11.dtd">
<svg width="456" height="456" viewBox="0 0 456 456" version="1.1" xmlns="http://www.w3.org/2000/svg" xmlns:xlink="http://www.w3.org/1999/xlink" xml:space="preserve" xmlns:serif="http://www.serif.com/" style="fill-rule:evenodd;clip-rule:evenodd;stroke-linejoin:round;stroke-miterlimit:2;">
 <g transform="translate(0.000000,512.000000) scale(0.100000,-0.100000)"
fill="#000000" stroke="none">
<path d="M2583 4819 c-62 -24 -153 -104 -189 -166 -20 -33 -25 -51 -20 -76 4
-17 11 -72 16 -122 9 -97 14 -130 25 -157 5 -13 2 -15 -14 -11 -33 8 -43 -34
-25 -102 8 -31 19 -65 24 -75 11 -21 13 -73 4 -107 -4 -16 -27 -30 -87 -54
-108 -44 -213 -116 -261 -178 -21 -28 -46 -51 -55 -51 -9 0 -41 9 -71 21 -77
29 -194 23 -265 -13 -148 -76 -245 -243 -233 -397 l5 -56 -64 -69 c-37 -40
-78 -99 -99 -141 -31 -63 -36 -84 -41 -171 -6 -107 -22 -151 -68 -194 -41 -37
-85 -100 -85 -122 0 -10 -16 -42 -35 -71 -44 -67 -55 -127 -55 -312 0 -142 15
-271 44 -381 9 -34 13 -75 10 -93 -4 -18 0 -46 9 -69 12 -31 14 -63 8 -177 -4
-77 -6 -145 -4 -152 5 -13 61 -52 135 -91 43 -24 70 -30 145 -35 80 -5 93 -3
108 13 9 10 33 21 53 25 50 9 60 19 68 70 4 29 12 46 23 50 10 3 24 16 31 29
11 21 8 34 -19 105 -17 44 -31 87 -31 95 0 26 -55 79 -124 121 -76 46 -102 86
-91 141 4 25 30 60 91 125 47 49 94 110 105 135 25 55 49 164 49 224 0 54 3
58 61 98 64 43 129 118 162 185 15 32 29 57 31 57 2 0 15 -18 30 -40 14 -22
59 -67 99 -100 93 -76 101 -90 99 -170 -1 -40 6 -85 17 -117 13 -40 15 -53 5
-57 -6 -2 -15 -24 -19 -48 -4 -24 -14 -55 -21 -70 -8 -15 -14 -54 -14 -86 0
-42 -8 -76 -25 -116 -14 -31 -25 -68 -25 -83 0 -14 -17 -69 -39 -122 -125
-312 -106 -523 71 -790 46 -71 177 -213 138 -151 -117 187 -201 479 -185 640
15 163 67 357 117 438 17 28 25 32 61 32 57 0 35 19 -40 34 l-58 12 35 19 c19
10 55 24 80 30 l45 12 -42 21 c-23 12 -51 22 -63 22 -30 0 -24 17 10 28 31 11
111 3 160 -16 25 -10 23 -13 -19 -24 -9 -3 27 -30 80 -62 112 -69 205 -131
238 -160 25 -22 25 -21 6 27 -4 9 14 23 52 40 l58 26 3 -181 c1 -102 -2 -186
-7 -191 -16 -16 -48 2 -157 89 -58 47 -128 96 -155 110 -40 20 -147 43 -204
44 -5 0 23 -17 64 -36 57 -28 95 -58 171 -133 141 -140 189 -250 191 -441 l1
-95 13 50 c7 28 14 84 14 125 1 62 4 72 13 55 21 -35 13 -143 -15 -224 -28
-79 -54 -126 -110 -205 l-35 -48 1 83 c0 46 -5 95 -10 109 -10 22 -11 19 -11
-25 0 -54 -20 -122 -59 -198 -18 -37 -21 -52 -13 -62 11 -14 -57 -98 -209
-259 l-56 -59 65 44 c85 58 197 165 341 326 141 158 208 255 216 312 3 23 9
41 12 41 9 0 65 -117 91 -190 l20 -55 -5 59 c-3 32 -10 67 -16 79 -8 13 16 1
69 -36 84 -59 98 -66 89 -44 -3 6 -15 37 -27 67 l-21 55 61 -60 c34 -33 74
-80 91 -104 16 -25 29 -41 29 -38 0 13 -92 214 -135 295 l-45 84 71 -64 c38
-34 91 -81 116 -103 52 -45 53 -47 -28 95 -66 118 -76 156 -60 233 17 81 76
258 107 320 22 42 22 47 7 38 -37 -19 -140 -100 -205 -160 -75 -69 -70 -71
-87 39 -9 56 -25 218 -26 258 0 7 47 32 105 55 58 24 128 58 155 76 50 32 50
33 15 26 -19 -4 -45 -9 -57 -12 -13 -3 -23 -1 -23 3 1 10 128 70 134 63 8 -9
57 -111 54 -113 -2 -2 -24 -17 -49 -34 -52 -35 -99 -86 -141 -151 -38 -60 -36
-75 3 -20 48 67 120 138 162 161 22 10 41 17 43 15 3 -3 7 -22 11 -43 3 -22
25 -79 48 -129 57 -120 101 -245 121 -352 22 -112 22 -301 0 -402 -9 -41 -15
-76 -12 -78 7 -8 38 84 52 155 38 200 1 386 -129 647 -34 68 -51 116 -54 150
-2 28 -19 83 -39 125 -24 54 -36 95 -40 145 -8 97 -8 104 5 153 9 33 8 58 -4
118 -15 71 -15 77 2 107 14 24 37 39 92 62 41 16 93 47 116 67 l42 37 38 -75
c41 -84 127 -179 190 -211 76 -39 79 -48 85 -207 5 -152 15 -183 80 -266 61
-78 100 -187 87 -243 -4 -13 -21 -30 -39 -39 -18 -8 -59 -37 -90 -63 -45 -37
-59 -55 -64 -84 -4 -20 -17 -57 -30 -83 -29 -58 -30 -70 -4 -93 11 -10 26 -36
32 -58 9 -31 19 -43 47 -54 20 -7 48 -20 63 -28 37 -21 56 -19 97 10 20 13 68
36 106 50 39 14 76 33 83 42 6 9 12 37 12 62 1 61 23 160 42 191 9 14 21 48
27 76 6 29 28 97 50 152 55 138 71 207 70 298 l-2 79 -8 -85 c-7 -83 -16 -114
-94 -310 -60 -154 -86 -210 -121 -269 -23 -38 -30 -57 -22 -62 8 -5 7 -15 -5
-33 -19 -29 -22 -40 -7 -31 11 7 50 79 50 92 0 4 -7 -1 -15 -11 -8 -11 -15
-15 -15 -9 0 14 27 36 32 26 2 -4 2 -37 0 -74 l-4 -65 -34 -1 c-28 -1 -34 2
-29 16 3 9 -1 25 -9 36 -13 18 -14 18 -25 -3 -16 -30 -76 -31 -91 -2 -6 11
-10 28 -8 37 2 10 -3 18 -9 19 -7 1 -17 2 -23 3 -21 2 -9 21 14 21 19 0 23 4
19 19 -3 11 -13 27 -22 35 -16 15 -21 14 -59 -14 -24 -17 -44 -41 -48 -57 -10
-43 -33 -83 -47 -83 -7 0 -21 6 -31 13 -17 12 -17 15 7 51 15 20 29 57 33 81
5 40 13 49 71 95 36 27 83 55 104 62 31 9 37 14 28 25 -9 10 -7 24 7 55 13 29
19 63 18 106 -1 35 2 60 6 55 15 -17 30 -78 31 -127 0 -38 3 -46 9 -31 27 62
-1 177 -66 270 -32 47 -39 66 -38 104 0 25 8 62 16 81 9 19 19 53 23 75 10 63
48 135 101 194 l48 53 -40 -20 c-22 -11 -63 -42 -92 -69 -70 -66 -69 -45 14
175 l24 67 -23 -29 -24 -29 -6 33 c-4 18 -7 62 -8 99 -1 82 -4 73 -23 -54 -8
-55 -19 -101 -25 -103 -6 -2 -8 -9 -4 -15 3 -7 3 -9 -2 -5 -4 4 -14 3 -21 -3
-16 -13 -103 24 -159 67 -94 71 -235 305 -235 389 0 31 6 47 25 65 36 34 129
39 209 11 33 -12 65 -21 72 -21 17 0 82 106 90 147 3 18 10 33 14 33 17 0 74
-77 101 -135 20 -41 30 -83 34 -135 l6 -75 -28 31 c-39 44 -113 104 -126 104
-7 0 -5 -5 4 -10 9 -5 29 -26 44 -46 l28 -36 -29 18 c-21 14 -14 1 29 -49 31
-37 73 -93 94 -125 20 -31 47 -73 60 -93 22 -34 123 -128 123 -115 0 3 -22 30
-50 61 -78 86 -93 124 -96 236 -5 163 -44 274 -143 396 -40 50 -49 68 -54 114
-8 78 -43 160 -96 225 -47 58 -133 118 -186 130 -24 5 -16 -2 34 -36 79 -54
153 -151 175 -230 22 -77 21 -194 -3 -245 -19 -43 -67 -105 -81 -105 -4 0 1
18 11 40 11 23 22 69 26 103 18 197 -130 410 -327 469 l-45 13 55 6 55 6 -59
1 c-58 2 -59 2 -137 76 -61 57 -100 84 -176 121 -54 25 -109 52 -123 59 -26
12 -42 66 -29 96 50 114 60 185 28 214 -9 8 -10 7 -4 -3 6 -10 4 -12 -4 -7 -6
4 -20 2 -29 -5 -15 -12 -15 -12 1 7 13 16 17 39 17 100 0 43 5 95 10 114 14
49 -4 136 -38 185 -19 27 -43 46 -78 60 -27 11 -72 33 -100 50 -65 40 -163 45
-241 14z m216 -24 c18 -9 29 -20 26 -25 -4 -6 2 -10 11 -10 17 0 64 -13 111
-31 12 -4 27 -18 33 -30 11 -20 10 -21 -20 -17 -80 12 -234 -38 -265 -86 -10
-15 -14 -34 -10 -48 5 -18 4 -20 -4 -8 -28 39 -1 99 58 130 43 23 25 26 -26 5
-20 -8 -37 -14 -39 -12 -2 1 -5 17 -9 34 -4 25 0 35 17 47 17 12 19 16 6 16
-16 0 -106 -69 -100 -77 2 -2 1 -9 -1 -16 -12 -29 -5 32 8 68 17 47 15 52 -11
24 -14 -16 -19 -36 -19 -79 1 -32 -3 -57 -6 -54 -14 8 -19 59 -10 92 12 41 6
41 -15 1 -10 -21 -19 -28 -23 -20 -10 15 -24 -1 -45 -50 -17 -39 -22 -15 -5
28 21 56 96 114 174 134 43 12 127 3 164 -16z m-146 -100 c-3 -9 -8 -14 -10
-11 -3 3 -2 9 2 15 9 16 15 13 8 -4z m338 -46 l24 -20 -25 8 c-36 11 -111 6
-153 -12 -44 -18 -107 -81 -107 -107 0 -10 -4 -18 -10 -18 -13 0 -13 66 0 89
14 27 53 50 112 66 78 21 131 19 159 -6z m9 -49 c12 -12 20 -33 20 -52 l-1
-33 -15 27 c-16 30 -43 48 -71 48 -13 -1 -11 -5 10 -16 15 -8 27 -16 27 -17 0
-2 -20 1 -45 7 l-45 10 28 23 c34 28 66 29 92 3z m-111 -91 c32 -19 33 -22 27
-68 -5 -40 -3 -51 13 -66 37 -32 43 -77 36 -233 -3 -81 -9 -154 -11 -163 -3
-9 -22 -28 -42 -42 -21 -14 -55 -41 -77 -61 -40 -38 -57 -42 -100 -26 -18 7
-31 6 -44 -2 -27 -17 -70 -2 -83 30 -7 15 -27 44 -45 65 -38 43 -44 81 -29
173 6 40 6 41 -17 37 -41 -8 -67 37 -67 116 0 42 5 74 14 87 8 11 16 47 17 78
2 45 7 60 23 72 28 19 90 17 155 -5 l54 -19 51 24 c63 29 82 30 125 3z m107
-146 c4 -13 3 -35 -1 -50 l-7 -28 -13 39 c-7 21 -18 43 -24 49 -6 6 -11 29
-11 52 l1 40 25 -40 c13 -22 27 -50 30 -62z m-575 -186 c11 -27 18 -51 16 -54
-10 -9 -47 89 -46 119 1 27 3 29 6 8 3 -13 14 -46 24 -73z m585 25 c-6 -35 -5
-36 9 -18 17 23 20 52 5 61 -6 4 -8 11 -4 16 3 5 9 7 13 4 18 -11 18 -46 0
-80 -11 -20 -18 -44 -17 -53 2 -9 -5 -18 -16 -20 -16 -4 -18 0 -12 28 3 18 6
56 6 84 1 41 3 47 11 33 6 -10 8 -35 5 -55z m-559 -239 c-1 -132 0 -142 31
-227 33 -92 36 -122 7 -65 -37 71 -55 142 -55 218 0 75 10 211 16 211 1 0 2
-62 1 -137z m36 58 c4 -29 2 -40 -5 -33 -5 5 -12 29 -15 53 -4 29 -2 41 4 34
6 -5 13 -30 16 -54z m523 3 c4 -26 3 -83 -1 -128 -15 -158 -14 -171 25 -211
37 -39 37 -40 -8 -24 -19 6 -34 21 -40 37 -11 32 -3 372 9 372 4 0 11 -21 15
-46z m147 -116 c72 -37 121 -70 165 -113 68 -67 77 -91 35 -101 -60 -12 -112
-36 -148 -67 l-38 -33 52 -26 c50 -25 51 -25 45 -4 -13 43 -8 53 41 82 68 40
156 44 226 12 129 -60 214 -183 212 -307 0 -62 -21 -132 -42 -145 -5 -3 -15 9
-22 27 -18 44 -96 172 -114 187 -8 7 -4 -7 9 -31 27 -49 50 -152 33 -146 -6 2
-24 28 -40 58 -16 30 -38 63 -48 74 -17 17 -17 13 5 -35 44 -97 40 -120 -6
-35 -51 95 -83 140 -116 161 -22 15 -22 13 6 -22 31 -39 75 -139 70 -156 -2
-5 -20 15 -41 45 -54 78 -89 107 -47 39 35 -57 34 -78 -3 -45 -12 11 -35 29
-52 39 -30 18 -30 18 6 -22 32 -35 76 -92 92 -120 3 -6 -17 -3 -46 7 -76 27
-99 23 -41 -6 79 -39 97 -61 91 -106 -17 -131 -143 -245 -295 -269 -107 -18
-251 18 -300 74 -16 19 -16 19 3 11 11 -4 43 -16 70 -27 70 -28 196 -35 266
-15 78 23 146 72 186 134 18 29 36 61 39 71 4 9 -3 3 -14 -15 -25 -39 -87 -76
-171 -103 -121 -38 -257 -19 -347 49 -90 68 -114 132 -74 198 35 58 59 67 168
60 54 -3 84 -2 67 3 -16 4 -65 8 -108 9 -76 1 -79 2 -117 39 -22 20 -46 53
-54 72 -13 33 -12 39 14 95 15 33 31 87 34 120 8 66 100 268 138 301 l21 19
-7 -90 c-4 -49 -14 -118 -22 -153 -7 -35 -14 -66 -14 -69 0 -3 50 -2 111 2 98
6 118 11 175 41 35 18 60 35 56 38 -5 3 -34 -8 -66 -25 -50 -26 -61 -29 -89
-20 -18 6 -45 22 -62 35 -27 22 -30 30 -29 78 0 78 15 178 26 178 5 0 55 -23
111 -52z m-772 -55 c8 -38 13 -77 11 -88 -4 -32 -43 -66 -109 -96 -35 -15 -63
-29 -63 -31 0 -2 37 -4 83 -5 129 -2 262 -40 320 -91 29 -26 33 -4 9 61 -29
81 -12 61 22 -25 14 -37 39 -89 55 -115 25 -41 30 -62 35 -143 8 -117 3 -128
-52 -112 -22 7 -70 12 -108 12 l-69 -1 53 -18 c63 -22 88 -43 103 -88 39 -118
-135 -200 -336 -158 -44 9 -87 22 -95 29 -8 7 -36 24 -61 39 -59 33 -102 82
-124 142 l-18 46 37 31 c46 38 41 46 -10 16 -21 -12 -34 -17 -30 -10 4 7 30
24 58 38 56 28 59 39 7 24 -71 -21 -71 -6 -1 72 31 35 33 39 12 28 -48 -25
-91 -65 -122 -113 -17 -26 -32 -46 -34 -44 -5 5 24 144 32 161 22 38 -41 -39
-69 -87 -27 -45 -36 -53 -41 -40 -4 10 -3 19 3 21 5 2 7 10 4 19 -5 12 -3 14
7 8 9 -5 11 -4 6 4 -10 16 26 71 74 115 48 43 39 47 -17 7 -45 -32 -103 -108
-126 -162 -13 -31 -21 -37 -51 -41 -33 -4 -37 -2 -47 31 -29 86 22 236 105
308 l41 35 -35 -17 c-56 -29 -145 -127 -181 -202 -30 -60 -34 -77 -34 -148 1
-44 6 -99 13 -122 l12 -41 36 10 c41 11 108 2 140 -19 107 -70 44 -387 -107
-534 -59 -59 -141 -99 -197 -99 -25 1 -24 2 10 14 65 23 124 64 177 122 49 53
51 58 36 74 -16 18 -20 16 -90 -29 -75 -49 -145 -75 -186 -69 -21 3 -24 9 -27
49 -2 29 4 65 16 95 53 131 95 222 135 291 l45 75 -15 61 c-7 34 -14 98 -14
142 -2 134 30 216 115 299 45 44 47 47 17 30 -107 -61 -189 -190 -199 -312
l-5 -67 -15 40 c-8 22 -14 72 -15 111 0 59 5 82 31 137 76 163 222 238 369
188 34 -12 73 -21 86 -21 81 0 170 -57 198 -125 9 -22 13 -25 16 -13 6 23 -17
64 -67 121 -51 58 -49 83 13 140 42 39 193 121 207 112 4 -3 14 -35 21 -72z
m-851 -756 c14 -9 34 -22 45 -29 11 -7 21 -14 23 -15 2 0 -9 -21 -24 -45 -15
-23 -40 -72 -56 -106 -16 -35 -45 -87 -64 -116 -18 -28 -43 -76 -53 -106 -11
-31 -22 -48 -24 -40 -3 8 -13 40 -22 70 -40 129 -45 101 -10 -50 33 -140 32
-157 -5 -97 -36 56 -45 60 -24 12 l15 -36 -28 18 c-19 12 -11 -1 25 -40 94
-100 127 -212 81 -271 -11 -14 -24 -24 -29 -21 -4 2 -26 37 -50 76 -23 39 -44
68 -47 65 -3 -2 16 -48 42 -100 52 -105 63 -158 46 -208 -11 -32 -11 -32 6
-15 14 14 18 34 18 90 0 69 1 73 33 100 27 25 32 36 32 73 0 43 1 43 26 34 14
-6 36 -10 49 -10 13 0 25 -6 28 -12 12 -33 -19 -164 -40 -172 -9 -4 -13 -13
-9 -22 3 -8 2 -13 -3 -10 -15 10 -139 -118 -160 -164 l-19 -42 -7 30 c-3 16
-15 38 -26 48 -20 18 -20 18 -11 -7 6 -13 15 -57 21 -98 17 -108 39 -143 118
-190 88 -51 111 -77 129 -145 8 -31 24 -72 36 -92 l22 -37 -23 -18 c-29 -24
-44 -24 -64 -1 -24 27 -47 96 -36 113 14 22 12 26 -36 58 -48 32 -55 30 -28
-9 25 -35 25 -50 0 -50 -20 1 -21 2 -5 14 17 12 17 14 -2 31 -11 10 -21 16
-23 14 -1 -2 -13 -24 -26 -49 -14 -25 -38 -64 -54 -87 -16 -23 -28 -45 -26
-50 2 -4 20 -5 39 -2 31 6 32 7 8 8 -35 1 -35 11 -3 41 25 23 25 23 25 2 0
-12 11 -29 26 -38 32 -21 29 -60 -5 -83 -24 -15 -24 -15 -19 6 5 20 3 21 -19
12 -18 -7 -34 -5 -59 7 -44 21 -46 26 -48 88 -2 37 -15 78 -50 154 -47 100
-47 104 -36 150 12 46 11 50 -45 187 -54 131 -85 250 -84 320 1 22 6 12 23
-40 31 -95 110 -244 123 -231 3 2 -4 40 -15 83 -23 90 -20 71 -31 236 -5 71
-11 130 -14 133 -2 3 -8 -21 -12 -52 -5 -39 -10 -53 -16 -43 -10 17 -12 97 -2
154 l6 40 17 -38 17 -38 6 76 c9 100 22 127 106 215 75 78 114 136 125 183 7
31 -8 36 -36 10 -17 -15 -18 -14 -18 21 0 52 43 130 109 199 l56 59 20 -45
c11 -24 31 -52 45 -60z m480 74 c0 -89 116 -229 225 -271 48 -19 80 -24 155
-25 109 0 164 17 236 71 57 44 57 23 0 -31 -33 -32 -59 -46 -109 -60 -86 -23
-218 -17 -299 14 -67 26 -156 103 -193 166 -37 62 -54 178 -24 159 5 -3 9 -13
9 -23z m739 -218 c8 -20 36 -59 63 -85 40 -39 45 -48 29 -48 -11 0 -39 -7 -61
-16 -38 -16 -46 -15 -116 1 l-75 17 39 29 c23 17 52 53 68 84 16 30 31 55 34
55 4 0 12 -17 19 -37z m489 -7 c3 -12 -1 -17 -10 -14 -7 3 -15 13 -16 22 -3
12 1 17 10 14 7 -3 15 -13 16 -22z m-973 -6 c17 -19 17 -20 -1 -20 -27 0 -48
16 -40 29 10 16 20 14 41 -9z m1279 -210 c15 -36 44 -94 63 -130 l36 -65 -31
29 c-62 58 -133 231 -131 321 0 23 5 16 18 -30 10 -33 30 -89 45 -125z m-574
39 c58 -26 80 -47 80 -75 0 -32 -38 -66 -64 -57 -12 4 -55 17 -96 29 -72 21
-75 23 -85 59 -8 32 -6 39 10 51 27 20 103 17 155 -7z m-272 -9 c28 -17 32
-25 30 -56 l-2 -36 -56 6 c-37 4 -73 1 -110 -9 -105 -30 -133 -30 -166 -2 -21
18 -26 29 -18 37 19 19 208 80 249 80 23 0 54 -9 73 -20z m436 -81 c25 21 19
-4 -9 -38 -50 -58 -95 -53 -62 8 18 32 24 37 38 28 13 -8 22 -7 33 2z m-469
-119 c25 0 55 -42 55 -76 0 -60 1 -60 -124 -53 -95 5 -119 10 -145 28 -17 12
-31 29 -31 37 0 28 171 81 218 68 8 -2 20 -4 27 -4z m256 0 c117 -22 136 -48
69 -93 -34 -23 -200 -25 -200 -2 0 8 -4 15 -10 15 -20 0 -10 59 12 74 26 19
55 20 129 6z m224 -80 c-9 -17 -29 -52 -45 -77 -23 -36 -30 -58 -30 -97 0 -28
5 -58 10 -66 7 -11 10 -3 10 31 0 48 46 157 60 142 11 -12 30 -73 30 -98 0
-11 -21 -44 -47 -72 -27 -27 -57 -65 -68 -84 -18 -30 -83 -84 -92 -76 -2 2 6
25 17 51 12 25 25 79 29 119 5 40 16 87 25 104 9 18 16 45 16 62 0 24 9 36 43
60 53 38 61 38 42 1z m-833 -80 c9 -19 46 -96 82 -170 36 -74 62 -136 57 -138
-17 -6 -70 28 -88 55 -10 15 -16 36 -14 47 1 12 0 18 -4 14 -4 -4 -25 2 -46
12 -21 11 -47 20 -57 20 -11 0 -31 9 -46 21 -33 26 -34 68 -5 136 11 26 21 56
22 65 2 28 78 -20 99 -62z m346 -80 c55 -5 129 -5 180 0 48 5 97 7 109 4 20
-5 22 -10 16 -53 -14 -112 -55 -141 -199 -141 -118 0 -172 15 -218 61 -17 18
-24 29 -16 25 8 -4 6 0 -4 8 -11 9 -16 16 -11 16 5 0 4 5 -3 12 -7 7 -12 24
-12 39 0 22 5 28 28 32 15 2 29 5 32 5 3 1 47 -3 98 -8z m1250 -69 c2 -12 -4
-54 -13 -92 l-17 -70 -24 32 c-13 18 -26 40 -29 50 -8 23 20 89 37 89 9 0 9 3
-2 11 -12 7 -8 9 15 7 23 -2 31 -9 33 -27z m-718 -91 c0 -5 -31 -26 -70 -45
-67 -34 -89 -35 -52 -3 22 20 93 57 110 58 6 0 12 -4 12 -10z m-938 -20 c116
-30 127 -36 121 -59 -5 -20 -7 -20 -42 -4 -20 8 -67 26 -106 38 -38 13 -71 28
-73 34 -5 15 13 14 100 -9z m938 -43 c0 -7 -29 -27 -65 -45 -62 -30 -65 -31
-65 -11 0 15 14 27 53 44 60 27 77 30 77 12z m-886 -43 c34 -11 56 -23 56 -32
0 -9 -6 -12 -17 -7 -10 3 -59 18 -110 32 -51 15 -90 29 -88 33 6 10 91 -5 159
-26z m114 -13 c2 -32 0 -42 -10 -39 -7 3 -14 23 -16 47 -2 32 0 42 10 39 7 -3
14 -23 16 -47z m612 -5 c0 -25 -4 -48 -10 -51 -5 -3 -10 3 -10 14 0 45 -7 49
-63 30 -29 -10 -62 -18 -74 -19 -12 0 -23 -5 -25 -10 -3 -11 -158 -43 -166
-35 -12 11 13 20 86 31 l77 12 -120 1 c-110 1 -263 25 -282 45 -16 16 12 17
76 2 110 -25 237 -31 358 -16 60 8 114 20 121 27 23 23 32 14 32 -31z m-557
-35 c3 -14 0 -17 -14 -14 -11 3 -19 14 -19 24 0 23 26 15 33 -10z m517 -16 c0
-21 -90 -45 -201 -52 -67 -4 -98 -2 -103 6 -5 8 13 11 61 12 41 0 97 9 143 23
92 29 100 30 100 11z m-470 -38 c63 -14 135 -30 160 -35 l45 -10 -65 -1 c-95
-1 -280 46 -280 72 0 5 6 7 13 4 6 -2 64 -16 127 -30z m-1411 -123 c21 -56 17
-109 -10 -109 -8 0 -13 5 -12 11 2 11 -13 130 -22 174 l-5 25 15 -25 c8 -14
23 -48 34 -76z m1688 -113 c-3 -69 -2 -135 2 -146 5 -13 11 37 16 133 7 144
15 182 29 129 3 -13 10 -86 16 -162 6 -75 13 -142 16 -146 3 -5 2 -18 -1 -29
-5 -17 -15 -20 -70 -20 l-63 0 -7 103 c-11 163 17 295 58 270 6 -4 7 -53 4
-132z m-1648 -232 c1 -57 -10 -139 -18 -139 -4 0 -7 60 -7 133 0 119 1 128 12
92 7 -22 13 -61 13 -86z m54 8 c21 -41 24 -54 15 -78 -5 -16 -14 -29 -20 -29
-5 0 -6 -9 -3 -20 7 -22 -9 -27 -22 -7 -9 14 -11 199 -2 189 4 -4 18 -29 32
-55z m278 -89 c44 -48 46 -53 23 -62 -10 -4 -35 12 -72 49 l-57 55 34 0 c27 0
41 -8 72 -42z m2424 -75 c-1 -54 -4 -69 -17 -71 -18 -4 -58 43 -58 68 0 24 38
70 58 70 15 0 17 -10 17 -67z"/>
<path d="M2788 4693 c7 -3 16 -2 19 1 4 3 -2 6 -13 5 -11 0 -14 -3 -6 -6z"/>
<path d="M2778 4619 c-36 -19 -65 -55 -54 -66 3 -3 9 2 12 12 4 9 27 30 52 46
52 33 46 38 -10 8z"/>
<path d="M2501 4384 c0 -11 3 -14 6 -6 3 7 2 16 -1 19 -3 4 -6 -2 -5 -13z"/>
<path d="M2493 4335 c-11 -8 -23 -24 -26 -36 -5 -17 -2 -20 16 -16 12 3 31 1
42 -3 17 -7 15 -9 -12 -9 -23 -1 -36 -8 -44 -23 -6 -13 -8 -20 -4 -15 5 4 17
0 27 -9 14 -13 31 -16 83 -12 63 6 65 5 65 -18 0 -16 -17 -41 -50 -72 -40 -39
-50 -55 -50 -81 0 -40 14 -68 50 -102 26 -24 29 -25 55 -11 18 9 44 12 71 9
34 -3 47 0 60 14 16 18 15 19 -32 20 -27 0 -74 0 -104 -1 -43 -1 -52 1 -43 11
15 15 105 30 146 23 31 -4 31 -4 7 7 -24 10 -89 8 -157 -7 -39 -8 -42 5 -18
63 15 37 16 37 31 15 10 -14 26 -22 44 -22 16 0 32 -4 35 -10 9 -15 25 -12 25
4 0 8 16 20 35 26 26 9 35 17 34 33 0 12 -3 17 -5 11 -3 -7 -14 -10 -25 -7
-10 3 -25 1 -32 -4 -8 -7 -25 -4 -52 8 -31 14 -35 19 -17 19 20 0 22 4 22 65
0 55 3 65 18 65 9 0 22 -8 28 -18 21 -33 124 -51 124 -22 0 5 14 11 30 15 33
7 31 25 -3 25 -16 0 -18 3 -9 12 6 6 25 11 41 11 26 0 29 3 20 19 -12 22 -26
22 -96 2 -62 -18 -75 -14 -47 17 19 22 19 22 -4 10 -13 -7 -26 -19 -29 -27 -7
-20 -31 -18 -36 4 -4 16 -5 16 -6 0 -2 -27 -16 -22 -28 10 l-11 27 -1 -27 c-1
-20 -6 -26 -20 -25 -11 0 -18 4 -16 7 2 3 -6 12 -18 20 -20 12 -21 12 -8 -3
19 -23 0 -22 -48 2 -33 18 -41 18 -58 6z"/>
<path d="M2918 4153 c-22 -26 -30 -43 -21 -43 5 0 17 14 26 30 20 34 18 39 -5
13z"/>
<path d="M2887 4030 c3 -30 7 -57 9 -59 8 -9 2 75 -6 94 -6 13 -7 1 -3 -35z"/>
<path d="M2830 4024 c0 -5 7 -19 15 -30 8 -10 15 -14 15 -8 0 5 -7 19 -15 30
-8 10 -15 14 -15 8z"/>
<path d="M2860 3715 c-19 -66 -36 -126 -38 -133 -2 -7 10 -4 31 8 34 20 36 24
42 93 4 40 5 90 3 112 -3 36 -7 27 -38 -80z"/>
<path d="M2934 3576 c-47 -15 -110 -59 -126 -89 -8 -15 5 -9 43 19 29 21 83
49 119 61 48 17 57 22 35 22 -16 0 -49 -6 -71 -13z"/>
<path d="M2930 3241 c0 -7 26 -11 79 -11 43 0 100 -2 127 -5 43 -4 46 -4 19 5
-46 17 -225 25 -225 11z"/>
<path d="M2249 3570 l-24 -21 35 17 c43 21 47 24 28 24 -9 0 -26 -9 -39 -20z"/>
<path d="M2610 3465 c13 -14 26 -25 28 -25 3 0 -5 11 -18 25 -13 14 -26 25
-28 25 -3 0 5 -11 18 -25z"/>
<path d="M1597 2935 c-24 -50 -20 -58 4 -12 11 22 19 41 17 43 -3 2 -12 -12
-21 -31z"/>
<path d="M1748 2861 c-49 -114 -55 -133 -29 -96 21 31 77 173 70 179 -2 2 -21
-35 -41 -83z"/>
<path d="M1547 2818 c-15 -34 -25 -63 -23 -65 2 -2 15 24 30 58 15 33 26 62
24 64 -2 2 -16 -24 -31 -57z"/>
<path d="M1493 3013 c-46 -51 -70 -99 -94 -190 -30 -121 -22 -117 30 13 26 67
62 142 79 168 38 56 32 59 -15 9z"/>
<path d="M1145 2428 c10 -92 31 -181 66 -281 35 -97 46 -109 25 -26 -8 30 -13
55 -12 57 5 4 65 -113 81 -155 l14 -38 0 58 c1 69 -19 161 -29 133 -9 -27
-108 176 -123 252 -15 81 -30 80 -22 0z"/>
<path d="M1157 2095 c9 -19 18 -33 21 -31 4 5 -26 66 -33 66 -3 0 3 -16 12
-35z"/>
<path d="M1191 2014 c0 -11 3 -14 6 -6 3 7 2 16 -1 19 -3 4 -6 -2 -5 -13z"/>
<path d="M1090 1995 c15 -39 69 -133 81 -140 21 -14 6 26 -32 86 -50 78 -64
93 -49 54z"/>
<path d="M1203 1940 c0 -25 2 -35 4 -22 2 12 2 32 0 45 -2 12 -4 2 -4 -23z"/>
<path d="M1186 1853 c-4 -9 -2 -21 4 -27 7 -7 10 -2 10 17 0 31 -5 34 -14 10z"/>
<path d="M1197 1722 c-25 -27 -21 -36 5 -12 12 11 19 22 16 25 -2 3 -12 -3
-21 -13z"/>
<path d="M1181 1673 c-1 -7 15 -47 35 -90 19 -43 32 -64 29 -48 -7 36 -63 155
-64 138z"/>
<path d="M1220 1637 c0 -3 17 -17 38 -33 30 -23 33 -24 17 -5 -19 22 -55 46
-55 38z"/>
<path d="M2720 2275 c21 -22 26 -24 44 -12 37 25 31 37 -20 37 l-47 0 23 -25z"/>
<path d="M3730 3598 c41 -45 50 -53 50 -45 0 2 -21 23 -47 47 l-48 45 45 -47z"/>
<path d="M3800 3019 c-1 -33 116 -366 126 -356 4 4 -101 319 -115 344 -6 10
-11 15 -11 12z"/>
<path d="M3736 2953 c44 -101 86 -251 88 -310 1 -43 5 -63 14 -63 8 0 12 20
12 68 0 72 -27 158 -90 281 -33 67 -50 83 -24 24z"/>
<path d="M4218 2490 c9 -35 18 -58 20 -51 6 19 -7 75 -22 96 -11 15 -10 5 2
-45z"/>
<path d="M4280 2490 c0 -20 -7 -45 -15 -58 -13 -18 -14 -28 -4 -60 9 -31 8
-45 -5 -75 -15 -37 -6 -52 13 -19 19 32 13 -157 -7 -213 -17 -50 -55 -118 -92
-165 -14 -18 -22 -51 -29 -120 -5 -52 -8 -96 -6 -98 2 -2 8 23 14 55 20 100
30 128 57 154 l27 24 -7 -80 c-4 -44 -9 -96 -11 -115 -5 -37 4 -5 61 224 44
177 49 231 33 341 -7 50 -12 116 -11 148 1 32 -2 66 -8 75 -7 13 -9 10 -10
-18z"/>
<path d="M4208 2330 c-10 -30 -42 -89 -72 -130 -29 -41 -57 -86 -61 -100 -9
-31 -10 -32 64 60 63 76 95 148 89 197 -3 24 -6 20 -20 -27z"/>
<path d="M4237 2135 c-5 -38 -10 -81 -13 -95 -3 -20 -1 -18 11 9 11 21 15 54
13 95 l-3 61 -8 -70z"/>
<path d="M3982 2145 c-1 -16 5 -39 13 -49 15 -20 15 -20 29 0 8 10 22 33 31
49 14 26 11 24 -19 -10 -36 -41 -40 -40 -49 15 -4 22 -4 21 -5 -5z"/>
<path d="M4141 2042 c-46 -131 -46 -135 -13 -72 27 51 59 156 51 165 -3 2 -19
-40 -38 -93z"/>
<path d="M4063 2020 c0 -25 2 -35 4 -22 2 12 2 32 0 45 -2 12 -4 2 -4 -23z"/>
<path d="M2285 1890 l20 -23 -42 6 c-24 3 -43 2 -43 -1 0 -4 18 -17 39 -29 53
-30 179 -132 268 -217 40 -38 73 -66 73 -62 0 17 -44 96 -78 141 -43 57 -150
149 -213 184 l-44 24 20 -23z"/>
<path d="M3255 1715 c4 -11 9 -56 12 -100 l4 -80 -30 35 -31 35 25 -57 c73
-161 119 -518 86 -660 -5 -21 -7 -38 -4 -38 2 0 18 30 34 67 74 161 88 325 45
497 -24 94 -96 261 -131 301 l-17 20 7 -20z"/>
<path d="M4150 1606 c-5 -15 -10 -35 -10 -44 1 -9 7 1 15 23 16 44 11 63 -5
21z"/>
<path d="M2245 1610 c-14 -7 -10 -8 16 -4 35 6 39 3 77 -48 84 -112 123 -227
132 -388 l6 -115 8 100 c11 124 -1 195 -49 291 -40 81 -121 174 -151 173 -10
0 -28 -4 -39 -9z"/>
<path d="M4109 1593 c-13 -17 -13 -17 6 -3 11 8 22 16 24 17 2 2 0 3 -6 3 -6
0 -17 -8 -24 -17z"/>
<path d="M3972 1480 c0 -14 3 -34 8 -45 l9 -20 -1 20 c0 11 -4 31 -8 45 l-8
25 0 -25z"/>
<path d="M2097 1305 c16 -135 71 -282 133 -355 28 -33 26 -26 -26 100 -31 74
-69 173 -85 220 -25 78 -27 81 -22 35z"/>
</g>
</svg>